<?xml version="1.0" encoding="utf-8"?>
<!-- Generator: Adobe Illustrator 22.0.1, SVG Export Plug-In . SVG Version: 6.00 Build 0)  -->
<svg version="1.1" id="logo" xmlns="http://www.w3.org/2000/svg" xmlns:xlink="http://www.w3.org/1999/xlink" x="0px" y="0px"
	 viewBox="0 0 467.1 108.6" style="enable-background:new 0 0 467.1 108.6;" xml:space="preserve">
<style type="text/css">
	.st0{fill:#00273E;}
	.st1{fill:#9B9A9A;}
</style>
<g>
	<g>
		<path class="st0" d="M293.5,15.3l-1.6-2.7c-3.3-5.2-7.5-6.2-19.8-6.2c-0.8,0-1.1,0.4-1.1,1c-0.1,4.8-0.4,14.4-0.4,23.3
			c0,9.8,0.2,18.9,1.2,20.9c1.1,2.2,3.1,2.7,5.5,2.8c1.3,0.1,1.2,1.2,0,1.2h-22.6c-1.1,0-1.2-1.2,0-1.2c2.7,0,4.6-0.7,5.9-2.9
			c1-1.6,1.3-12,1.4-22.5c0-8.9-0.1-18.1-0.2-21.6c0-0.7-0.4-1-1.1-1c-6.9,0-15.7,0-19.4,6.2l-1.3,2.7c-0.4,0.8-1.5,0.7-1.3,0
			l2.5-11c18.4,0.2,32.8,0.8,51.2,0.1l2.4,10.9C294.9,16.2,293.9,16.2,293.5,15.3"/>
		<path class="st0" d="M140.3,5.7c-3.2,0.2-5.9,2.8-7.7,4.9c-0.8,1-1.7,2.2-2.7,3.5l-11.3,14.6c-1.5,1.7-1.8,3.4-1.8,5.1l0,11.2
			c0,1.4,0,2.7,0.1,4c0.1,1.3,0.4,2.7,0.8,3.1c1,1.3,3.5,2,5.1,2.1c1.3,0.1,1.1,1.2,0,1.2h-21.3c-1.3,0-1.6-1.2,0-1.2
			c2.6,0,4.8-1.7,5.4-3.9c0.2-0.5,0.3-1.2,0.3-1.9c0.1-0.7,0.2-1.5,0.2-2.2c0.1-0.8,0.1-1.6,0.1-2.3c0.1-1.3,0.1-2.9,0.1-4.6
			c0-4.5-0.9-7.9-3.5-11.7c-0.6-0.9-1.3-1.7-1.9-2.6c-0.9-1.4-7.1-9.6-7.7-10.3l-2.9-3.7c-1.3-1.8-3-3.6-5-4.7
			c-0.9-0.5-1.8-0.7-2.9-0.7c-0.9,0-1.2-1.2,0-1.2h21.7c0.9,0,1,1.2,0,1.2c-3.1,0-3.7,1.1-3.7,2.2c0,1.2,0.8,2.6,1.2,3.2
			c0.9,1.3,4,5.6,6.9,9.8c2.6,3.7,5.1,7.2,5.9,8.5c1.7-2.2,10.7-14.2,11.2-14.9l0.9-1.3c0.3-0.5,0.6-1,0.9-1.5
			c0.5-0.9,1.2-2.1,1.2-3.1c0.1-1.6-0.8-2.9-3.4-2.9c-1.2,0-1.3-1.2-0.3-1.2H142c0.9,0,0.8,1.2-0.1,1.2
			C141.4,5.6,140.9,5.6,140.3,5.7"/>
		<path class="st0" d="M366.7,55.5h-42.5c-1.2,0-1.2-0.9,0-1.2c1.1-0.2,2.1-0.5,3.1-0.9c2.6-1.1,2.3-4.7,2.5-6.8
			c0.1-0.8,0.1-1.6,0.1-2.3l0-2.7c0.1-1.1,0.1-2.3,0.1-3.7c0-1.4,0.1-2.7,0.1-4.1v-4.1V16c0-0.8,0-1.7-0.1-2.6
			c0-0.9-0.1-1.7-0.2-2.5c-0.2-3.1-1.4-4.8-5-5.4c-1.2-0.2-1-1.2,0-1.2h36.9c2.2,0,3.6,0,4.8,0.1c1.7,0,2.1,1.5,2.1,1.5l1.2,7.4
			c0.1,0.9-0.9,1.2-1.3,0.5c-1.1-1.7-1.9-3-3.5-4.3c-1.8-1.4-4.5-2.7-8.9-3.2c-2.4-0.3-7.3-0.4-10.7-0.4c-1.1,0-2.2,0-3.4,0.1
			c-0.8,0-2.4,0.5-2.6,4.6c-0.1,2.3-0.1,5.1-0.1,8.1v4.5v3l0.1,1.8v0.5h1.3c0.8,0,1.7,0,2.7-0.1l3.1-0.1c4.4-0.4,10.9-1.7,11.5-6.5
			h1.5v14.1h-1.5c-1.7-5.5-6.2-5.3-11.6-5.6c-0.8,0-1.4-0.1-2-0.1c-0.5,0-1-0.1-1.6-0.1h-1.6h-1.8c-0.1,0.6-0.1,1.5-0.1,2.6v3.9v2.1
			v2.4l0.1,3.9c0.1,1.5,0.1,2.9,0.2,4.3c0.3,2.7,0.9,3.6,4.1,4.1c1.8,0.3,3.7,0.4,5.8,0.4c0.9,0,2,0,3.4-0.1c1.4,0,2.9-0.2,4.4-0.4
			c4.3-0.5,12.2-4.1,14.7-8c0.7-1.1,1.9-0.8,1.6,0.4l-1.9,6.7C371,54.6,369.4,55.5,366.7,55.5"/>
		<path class="st0" d="M208.3,47.8c-1.1,1.8-2.7,3.4-4.8,4.7c-4.6,2.9-10.9,3.8-16.5,3.8c-5.1,0-9-0.9-12.1-1.6
			c-2.7-0.6-4.9-0.9-6.8-0.6c-0.9,0.2-0.9-0.4-0.9-0.9c0-1.2-0.2-9.9-0.2-9.9c0-0.7,1.1-0.8,1.4,0c2.3,6.1,11.5,11.4,18.5,11.4
			c4.2,0,7.7-0.9,10.3-2.7c2.6-1.9,3.9-4.4,3.9-7.5c0-2.3-0.9-4.3-2.9-5.8c-1.9-1.6-4.5-2.5-7-3.2c-1.4-0.4-11.5-3.2-12.8-3.7
			c-1.5-0.5-3-1.1-4.4-1.9c-1.4-0.9-2.7-1.8-3.7-2.9c-1.1-1.1-1.9-2.4-2.6-3.7c-0.7-1.4-1-2.9-1-4.4c0-2.6,0.6-4.8,1.7-6.7
			c2.5-3.9,6.6-6.3,11.4-7.4c2.6-0.6,5.3-0.9,8.1-0.9c2.6,0,4.9,0.2,6.8,0.6c2.7,0.5,5.4,1.1,8.2,1.3c0.4,0,0.9,0,1.4,0
			c0.8,0,1.4,0.2,1.4,1v9.9c0,1.6-0.8,1.5-1.5-0.3c-0.2-0.6-2-4.5-3.8-6.2c-2.6-2.5-6.3-4.6-12.1-4.6c-1.8,0-3.8,0.2-5.4,0.6
			c-1.5,0.4-2.9,1-4.1,1.9c-1.1,0.8-2,1.8-2.7,3.1c-0.6,1.2-0.9,2.5-0.9,4.1c0,2.4,0.9,4.3,2.7,5.8c1.8,1.5,4.2,2.7,7.1,3.5
			c1.2,0.4,11.3,3.2,12.5,3.5c4,1.2,7.1,2.9,9.3,5.2c2.3,2.3,3.4,5.1,3.4,8.5C210.1,43.9,209.5,46,208.3,47.8"/>
		<path class="st0" d="M49.8,21.1c-0.8-2.9-2-5.5-3.7-7.8c-1.6-2.4-3.6-4.3-6.1-5.7c-2.4-1.5-5.3-2.2-8.6-2.2
			c-3.4,0-6.3,0.7-8.7,2.2c-2.4,1.4-4.4,3.3-6.1,5.6c-1.6,2.3-2.7,5-3.5,7.9c-0.7,2.9-1.1,5.9-1.1,8.9c0,5.7,1.4,12,4.9,16.9
			c1.7,2.2,3.7,4,6.1,5.3c2.5,1.3,5.3,2,8.6,2c3.3,0,6.1-0.7,8.4-2.2c2.4-1.5,4.5-3.4,6.1-5.7c1.6-2.4,2.8-5,3.6-7.9
			c0.8-2.9,1.3-5.9,1.3-8.8C51,26.8,50.6,24,49.8,21.1 M59,40.1c-1.6,3.2-3.8,6-6.5,8.4c-2.7,2.4-5.9,4.2-9.6,5.5
			c-3.6,1.3-7.5,1.9-11.5,1.9c-4,0-7.8-0.6-11.5-1.8c-3.6-1.3-6.8-3.1-9.5-5.3c-2.7-2.3-4.9-5.1-6.4-8.2c-1.5-3.2-2.3-6.7-2.3-10.6
			c0-4.1,0.8-7.7,2.5-10.9c1.6-3.3,3.8-6,6.6-8.2c2.8-2.3,6.1-4,9.8-5.2c3.8-1.2,7.7-1.8,11.8-1.8c4.5,0,8.5,0.7,12.1,2.1
			c3.6,1.4,6.7,3.3,9.2,5.8c5.1,4.9,7.7,11.4,7.7,18C61.4,33.4,60.6,36.9,59,40.1"/>
		<path class="st0" d="M454.8,55.5c-8.3,0.1-12.4-4.8-14.5-6.6c-4.7-4.3-11.3-10.4-12.8-11.8c-1.4-1.3-4.2-4.3-6.2-5.5
			c-0.9-0.4-1-1.3,0-1.4c2.3-0.2,4.1-0.6,5.8-1.1c2.8-0.8,5.4-2.5,7.1-4.7c0.8-1,1.3-2.1,1.7-3.2c0.4-1.1,0.5-2.3,0.5-3.6
			c0-4.8-2.8-8.3-7.6-10.4c-1.2-0.5-2.6-0.9-3.9-1.1c-1.3-0.2-2.8-0.3-4.3-0.3c-1.1,0-2,0-2.7,0.1c-1.5,0-1.8,2.3-1.8,5.3
			c0,1.1-0.2,5.5-0.2,5.5v6v16.6c0,2.2,0,4.1,0.1,5.7l0.2,3.9c0.2,4.1,2.2,5.2,6.6,5.4c1.1,0,0.9,1.2,0,1.2h-21.5c-1,0-1.1-1,0-1.2
			c2.6-0.4,4-1.1,4.8-3.7c0.2-0.5,0.3-1.2,0.3-1.9c0.1-0.7,0.2-1.5,0.2-2.2c0-0.8,0.1-1.6,0.1-2.3v-2.7c0.1-1.1,0.1-2.3,0.1-3.7
			c0.1-1.4,0.1-2.7,0.1-4.1v-4.1V16c0-0.8,0-1.7-0.1-2.5c0-0.9-0.1-1.7-0.2-2.4c-0.1-0.8-0.2-1.5-0.4-2.1c-0.3-1.1-1-2.4-2-2.7
			c-0.8-0.4-1.7-0.6-2.6-0.7c-1-0.2-1-1.2,0-1.2h2.5h4.7c2.3,0,4.5-0.1,6.8-0.1h5.5c3.5,0,6.7,0.1,9.4,0.3c2.8,0.2,5.3,0.8,7.6,1.9
			c2.4,1.1,4.3,2.6,5.7,4.5c1.5,1.9,2.2,4.3,2.2,7.1c0,1.8-0.4,3.4-1.1,4.8c-2.2,4.4-7.3,7-12.1,8.6l0.7,0.7c2,2,2.6,2.5,5,4.7
			c0,0,8.7,8.1,10.5,9.7c4.9,4.3,8.2,6.8,15.3,7.6c1.1,0.1,0.9,1.2-0.2,1.2L454.8,55.5z"/>
	</g>
	<g>
		<path class="st1" d="M157.7,88.6c-1.3-1.1-3-2-5.6-2c-4.4,0-7.5,3.3-7.5,8.4c0,5,3.1,8.3,7.5,8.3c2.8,0,4.6-0.9,6-2.1l0.9,1.1
			c-1.7,1.5-3.6,2.9-7.3,2.9c-6.1,0-10.4-4.3-10.4-10.1s4.5-10.3,10.4-10.3c3.5,0,5.4,1.4,6.9,2.7L157.7,88.6z"/>
		<path class="st1" d="M186.7,104.8v-9.7h-10v9.7h-3.1V85.2h3.1v8.1h10v-8.1h3.1v19.6H186.7z"/>
		<path class="st1" d="M216.2,99.8h-8.5l-2.2,5h-2.2l9.2-20.4l9.2,20.4h-3.1L216.2,99.8z M208.5,97.8h6.8l-3.4-7.7L208.5,97.8z"/>
		<path class="st1" d="M245.4,104.8l-5.4-8.7h-2v8.7h-3V85.2h5c4.6,0,6.7,2.1,6.7,5.3c0,3.1-1.9,4.6-3.8,5.2l5.8,9.1H245.4z
			 M239.7,86.9H238v7.4h1.8c3,0,4-1.6,4-3.8C243.8,88.6,242.9,86.9,239.7,86.9z"/>
		<path class="st1" d="M268.1,87v17.8H265V87h-5.1v-1.8h13.3V87H268.1z"/>
		<path class="st1" d="M287.2,104.8V85.2h10.6V87h-7.5v6.5h7.2v1.8h-7.2v7.6h7.6v1.8H287.2z"/>
		<path class="st1" d="M323.2,104.8l-5.4-8.7h-2v8.7h-3V85.2h5c4.6,0,6.7,2.1,6.7,5.3c0,3.1-1.9,4.6-3.8,5.2l5.8,9.1H323.2z
			 M317.6,86.9h-1.7v7.4h1.8c3,0,4-1.6,4-3.8C321.6,88.6,320.8,86.9,317.6,86.9z"/>
	</g>
</g>
</svg>
