<svg version="1.1" xmlns="http://www.w3.org/2000/svg" xmlns:xlink="http://www.w3.org/1999/xlink" x="0px" y="0px" viewbox="0 0 249.2 28.2" enable-background="new 0 0 249.2 28.2" xml:space="preserve">
  <g>
    <path fill="#00273E" d="M156.9,6.2L156,4.8c-1.8-2.8-4-3.3-10.6-3.4c-0.4,0-0.6,0.2-0.6,0.5c-0.1,2.6-0.2,7.7-0.2,12.5			c0,5.3,0.1,10.2,0.6,11.2c0.6,1.2,1.7,1.5,3,1.5c0.7,0,0.6,0.7,0,0.7H136c-0.6,0-0.7-0.7,0-0.7c1.4,0,2.5-0.4,3.2-1.5			c0.5-0.9,0.7-6.4,0.7-12.1c0-4.8-0.1-9.8-0.1-11.6c0-0.4-0.2-0.5-0.6-0.5c-3.7,0-8.4,0-10.5,3.4l-0.7,1.5c-0.2,0.5-0.8,0.4-0.7,0			l1.4-5.9c9.9,0.1,17.7,0.4,27.5,0l1.3,5.9C157.7,6.7,157.1,6.7,156.9,6.2"></path>
    <path fill="#00273E" d="M74.5,1.1c-1.7,0.1-3.1,1.5-4.1,2.6c-0.4,0.6-0.9,1.2-1.5,1.9l-6.1,7.9c-0.8,0.9-1,1.8-1,2.8l0,6			c0,0.7,0,1.4,0,2.1c0.1,0.7,0.2,1.4,0.4,1.7c0.6,0.7,1.9,1.1,2.8,1.1c0.7,0.1,0.6,0.7,0,0.7H53.7c-0.7,0-0.9-0.7,0-0.7			c1.4,0,2.6-0.9,2.9-2.1c0.1-0.3,0.1-0.6,0.2-1c0.1-0.4,0.1-0.8,0.1-1.2c0-0.4,0-0.8,0-1.2c0-0.7,0-1.5,0-2.5c0-2.4-0.5-4.2-1.9-6.3			c-0.3-0.5-0.7-0.9-1-1.4C53.6,10.8,50.2,6.3,50,6l-1.6-2c-0.7-1-1.6-1.9-2.7-2.5c-0.5-0.3-1-0.4-1.6-0.4c-0.5,0-0.6-0.7,0-0.7h11.7			c0.5,0,0.5,0.7,0,0.7c-1.6,0-2,0.6-2,1.2c0,0.7,0.4,1.4,0.7,1.7c0.5,0.7,2.1,3,3.7,5.3c1.4,2,2.7,3.9,3.2,4.6c0.9-1.2,5.8-7.6,6-8			l0.5-0.7c0.2-0.3,0.3-0.5,0.5-0.8c0.3-0.5,0.6-1.1,0.7-1.7c0-0.9-0.4-1.5-1.8-1.6c-0.6,0-0.7-0.7-0.1-0.7h8.4c0.5,0,0.5,0.7,0,0.7			C75.1,1,74.8,1,74.5,1.1"></path>
    <path fill="#00273E" d="M196.3,27.9h-22.8c-0.6,0-0.7-0.5,0-0.6c0.6-0.1,1.1-0.2,1.7-0.5c1.4-0.6,1.3-2.5,1.3-3.7			c0-0.4,0-0.8,0-1.2l0-1.4c0-0.6,0-1.3,0-2c0-0.7,0-1.5,0-2.2V14V6.6c0-0.4,0-0.9,0-1.4c0-0.5,0-0.9-0.1-1.4			c-0.1-1.7-0.8-2.6-2.7-2.9c-0.7-0.1-0.5-0.6,0-0.6h19.8c1.2,0,2,0,2.6,0c0.9,0,1.1,0.8,1.1,0.8l0.6,4c0.1,0.5-0.5,0.6-0.7,0.3			c-0.6-0.9-1-1.6-1.9-2.3c-1-0.8-2.4-1.4-4.8-1.7c-1.3-0.2-3.9-0.2-5.8-0.2c-0.6,0-1.2,0-1.9,0.1c-0.5,0-1.3,0.2-1.4,2.5			c0,1.3,0,2.7,0,4.4v2.4v1.6l0,0.9v0.3h0.7c0.4,0,0.9,0,1.4,0l1.6-0.1c2.4-0.2,5.9-0.9,6.2-3.5h0.8v7.6h-0.8c-0.9-3-3.3-2.8-6.2-3			c-0.4,0-0.8,0-1.1,0c-0.3,0-0.6,0-0.8,0h-0.8h-1c0,0.3-0.1,0.8-0.1,1.4v2.1v1.1v1.3l0,2.1c0,0.8,0.1,1.6,0.1,2.3			c0.2,1.5,0.5,1.9,2.2,2.2c1,0.1,2,0.2,3.1,0.2c0.5,0,1.1,0,1.8,0c0.8,0,1.5-0.1,2.4-0.2c2.3-0.3,6.6-2.2,7.9-4.3			c0.4-0.6,1-0.5,0.8,0.2l-1,3.6C198.6,27.4,197.7,27.9,196.3,27.9"></path>
    <path fill="#00273E" d="M111.1,23.7c-0.6,1-1.5,1.8-2.6,2.5c-2.5,1.6-5.9,2-8.8,2c-2.7,0-4.9-0.5-6.5-0.9c-1.4-0.3-2.6-0.5-3.6-0.3			c-0.5,0.1-0.5-0.2-0.5-0.5c0-0.7-0.1-5.3-0.1-5.3c0-0.4,0.6-0.4,0.7,0c1.2,3.3,6.2,6.1,10,6.1c2.3,0,4.1-0.5,5.5-1.5			c1.4-1,2.1-2.3,2.1-4c0-1.2-0.5-2.3-1.5-3.1c-1-0.9-2.4-1.4-3.7-1.7c-0.7-0.2-6.2-1.7-6.9-2c-0.8-0.3-1.6-0.6-2.4-1			c-0.8-0.5-1.4-1-2-1.6c-0.6-0.6-1-1.3-1.4-2c-0.4-0.7-0.5-1.5-0.5-2.4c0-1.4,0.3-2.6,0.9-3.6c1.3-2.1,3.6-3.4,6.1-4			c1.4-0.3,2.8-0.5,4.3-0.5c1.4,0,2.6,0.1,3.6,0.3c1.5,0.3,2.9,0.6,4.4,0.7c0.2,0,0.5,0,0.8,0c0.4,0,0.7,0.1,0.7,0.5V7			c0,0.9-0.4,0.8-0.8-0.2c-0.1-0.3-1.1-2.4-2-3.4c-1.4-1.3-3.4-2.5-6.5-2.5c-1,0-2.1,0.1-2.9,0.3c-0.8,0.2-1.6,0.6-2.2,1			c-0.6,0.4-1.1,1-1.5,1.7c-0.3,0.6-0.5,1.4-0.5,2.2c0,1.3,0.5,2.3,1.4,3.1c1,0.8,2.3,1.4,3.8,1.9c0.6,0.2,6.1,1.7,6.7,1.9			c2.1,0.6,3.8,1.6,5,2.8c1.2,1.2,1.8,2.7,1.8,4.6C112,21.6,111.7,22.7,111.1,23.7"></path>
    <path fill="#00273E" d="M25.9,9.4c-0.4-1.5-1.1-2.9-2-4.2c-0.9-1.3-2-2.3-3.3-3.1c-1.3-0.8-2.8-1.2-4.6-1.2c-1.8,0-3.4,0.4-4.7,1.2			C10,2.9,8.9,3.9,8,5.1C7.2,6.4,6.6,7.8,6.2,9.4c-0.4,1.6-0.6,3.2-0.6,4.8c0,3.1,0.8,6.5,2.6,9.1c0.9,1.2,2,2.1,3.3,2.9			c1.3,0.7,2.9,1.1,4.6,1.1c1.8,0,3.3-0.4,4.5-1.2c1.3-0.8,2.4-1.8,3.3-3.1c0.9-1.3,1.5-2.7,1.9-4.3c0.4-1.6,0.7-3.2,0.7-4.7			C26.5,12.4,26.3,10.9,25.9,9.4 M30.8,19.6c-0.9,1.7-2,3.2-3.5,4.5c-1.5,1.3-3.2,2.3-5.1,2.9c-1.9,0.7-4,1-6.2,1			c-2.2,0-4.2-0.3-6.2-1c-1.9-0.7-3.6-1.6-5.1-2.9c-1.5-1.2-2.6-2.7-3.5-4.4C0.4,18,0,16.1,0,14.1c0-2.2,0.4-4.1,1.3-5.9			C2.2,6.5,3.4,5,4.9,3.8C6.4,2.6,8.2,1.6,10.1,1c2-0.7,4.1-1,6.4-1c2.4,0,4.6,0.4,6.5,1.1c1.9,0.8,3.6,1.8,4.9,3.1			c2.8,2.6,4.2,6.1,4.2,9.7C32.1,16,31.7,17.9,30.8,19.6" class="logo-o"></path>
    <path fill="#00273E" d="M243.6,27.9c-4.4,0.1-6.6-2.6-7.8-3.6c-2.5-2.3-6.1-5.6-6.9-6.3c-0.7-0.7-2.3-2.3-3.3-3			c-0.5-0.2-0.5-0.7,0-0.7c1.3-0.1,2.2-0.3,3.1-0.6c1.5-0.4,2.9-1.3,3.8-2.5c0.4-0.5,0.7-1.1,0.9-1.7c0.2-0.6,0.3-1.3,0.3-1.9			c0-2.6-1.5-4.5-4.1-5.6c-0.7-0.3-1.4-0.5-2.1-0.6c-0.7-0.1-1.5-0.2-2.3-0.2c-0.6,0-1.1,0-1.4,0c-0.8,0-1,1.3-1,2.8			c0,0.6-0.1,3-0.1,3v3.2v8.9c0,1.2,0,2.2,0,3.1l0.1,2.1c0.1,2.2,1.2,2.8,3.5,2.9c0.6,0,0.5,0.7,0,0.7h-11.6c-0.5,0-0.6-0.5,0-0.6			c1.4-0.2,2.2-0.6,2.6-2c0.1-0.3,0.1-0.6,0.2-1c0.1-0.4,0.1-0.8,0.1-1.2c0-0.4,0-0.8,0-1.2v-1.4c0-0.6,0-1.3,0-2c0-0.7,0-1.5,0-2.2			V14V6.6c0-0.4,0-0.9,0-1.4c0-0.5,0-0.9-0.1-1.3c0-0.4-0.1-0.8-0.2-1.1c-0.1-0.6-0.5-1.3-1.1-1.5c-0.4-0.2-0.9-0.3-1.4-0.4			c-0.5-0.1-0.5-0.6,0-0.6h1.3h2.6c1.2,0,2.4,0,3.6,0h3c1.9,0,3.6,0.1,5.1,0.2c1.5,0.1,2.9,0.4,4.1,1c1.3,0.6,2.3,1.4,3.1,2.4			c0.8,1,1.2,2.3,1.2,3.8c0,1-0.2,1.8-0.6,2.6c-1.2,2.3-3.9,3.8-6.5,4.6l0.4,0.4c1.1,1.1,1.4,1.4,2.7,2.5c0,0,4.7,4.4,5.7,5.2			c2.6,2.3,4.4,3.7,8.2,4.1c0.6,0.1,0.5,0.7-0.1,0.6L243.6,27.9z"></path>
  </g>
</svg>