<svg xmlns="http://www.w3.org/2000/svg" viewBox="0 0 467.1 108.6"><path d="M293.5 15.3l-1.6-2.7c-3.3-5.2-7.5-6.2-19.8-6.2-.8 0-1.1.4-1.1 1-.1 4.8-.4 14.4-.4 23.3 0 9.8.2 18.9 1.2 20.9 1.1 2.2 3.1 2.7 5.5 2.8 1.3.1 1.2 1.2 0 1.2h-22.6c-1.1 0-1.2-1.2 0-1.2 2.7 0 4.6-.7 5.9-2.9 1-1.6 1.3-12 1.4-22.5 0-8.9-.1-18.1-.2-21.6 0-.7-.4-1-1.1-1-6.9 0-15.7 0-19.4 6.2l-1.3 2.7c-.4.8-1.5.7-1.3 0l2.5-11c18.4.2 32.8.8 51.2.1l2.4 10.9c.1.9-.9.9-1.3 0M140.3 5.7c-3.2.2-5.9 2.8-7.7 4.9-.8 1-1.7 2.2-2.7 3.5l-11.3 14.6c-1.5 1.7-1.8 3.4-1.8 5.1V45c0 1.4 0 2.7.1 4 .1 1.3.4 2.7.8 3.1 1 1.3 3.5 2 5.1 2.1 1.3.1 1.1 1.2 0 1.2h-21.3c-1.3 0-1.6-1.2 0-1.2 2.6 0 4.8-1.7 5.4-3.9.2-.5.3-1.2.3-1.9.1-.7.2-1.5.2-2.2.1-.8.1-1.6.1-2.3.1-1.3.1-2.9.1-4.6 0-4.5-.9-7.9-3.5-11.7-.6-.9-1.3-1.7-1.9-2.6-.9-1.4-7.1-9.6-7.7-10.3L91.6 11c-1.3-1.8-3-3.6-5-4.7-.9-.5-1.8-.7-2.9-.7-.9 0-1.2-1.2 0-1.2h21.7c.9 0 1 1.2 0 1.2-3.1 0-3.7 1.1-3.7 2.2 0 1.2.8 2.6 1.2 3.2.9 1.3 4 5.6 6.9 9.8 2.6 3.7 5.1 7.2 5.9 8.5 1.7-2.2 10.7-14.2 11.2-14.9l.9-1.3.9-1.5c.5-.9 1.2-2.1 1.2-3.1.1-1.6-.8-2.9-3.4-2.9-1.2 0-1.3-1.2-.3-1.2H142c.9 0 .8 1.2-.1 1.2-.5 0-1 0-1.6.1m226.4 49.8h-42.5c-1.2 0-1.2-.9 0-1.2 1.1-.2 2.1-.5 3.1-.9 2.6-1.1 2.3-4.7 2.5-6.8.1-.8.1-1.6.1-2.3v-2.7c.1-1.1.1-2.3.1-3.7 0-1.4.1-2.7.1-4.1V16c0-.8 0-1.7-.1-2.6 0-.9-.1-1.7-.2-2.5-.2-3.1-1.4-4.8-5-5.4-1.2-.2-1-1.2 0-1.2h36.9c2.2 0 3.6 0 4.8.1 1.7 0 2.1 1.5 2.1 1.5l1.2 7.4c.1.9-.9 1.2-1.3.5-1.1-1.7-1.9-3-3.5-4.3-1.8-1.4-4.5-2.7-8.9-3.2-2.4-.3-7.3-.4-10.7-.4-1.1 0-2.2 0-3.4.1-.8 0-2.4.5-2.6 4.6-.1 2.3-.1 5.1-.1 8.1v7.5l.1 1.8v.5h1.3c.8 0 1.7 0 2.7-.1l3.1-.1c4.4-.4 10.9-1.7 11.5-6.5h1.5v14.1H358c-1.7-5.5-6.2-5.3-11.6-5.6-.8 0-1.4-.1-2-.1-.5 0-1-.1-1.6-.1h-3.4c-.1.6-.1 1.5-.1 2.6v8.4l.1 3.9c.1 1.5.1 2.9.2 4.3.3 2.7.9 3.6 4.1 4.1 1.8.3 3.7.4 5.8.4.9 0 2 0 3.4-.1 1.4 0 2.9-.2 4.4-.4 4.3-.5 12.2-4.1 14.7-8 .7-1.1 1.9-.8 1.6.4l-1.9 6.7c-.7 2.2-2.3 3.1-5 3.1m-158.4-7.7c-1.1 1.8-2.7 3.4-4.8 4.7-4.6 2.9-10.9 3.8-16.5 3.8-5.1 0-9-.9-12.1-1.6-2.7-.6-4.9-.9-6.8-.6-.9.2-.9-.4-.9-.9 0-1.2-.2-9.9-.2-9.9 0-.7 1.1-.8 1.4 0 2.3 6.1 11.5 11.4 18.5 11.4 4.2 0 7.7-.9 10.3-2.7 2.6-1.9 3.9-4.4 3.9-7.5 0-2.3-.9-4.3-2.9-5.8-1.9-1.6-4.5-2.5-7-3.2-1.4-.4-11.5-3.2-12.8-3.7-1.5-.5-3-1.1-4.4-1.9-1.4-.9-2.7-1.8-3.7-2.9-1.1-1.1-1.9-2.4-2.6-3.7-.7-1.4-1-2.9-1-4.4 0-2.6.6-4.8 1.7-6.7 2.5-3.9 6.6-6.3 11.4-7.4 2.6-.6 5.3-.9 8.1-.9 2.6 0 4.9.2 6.8.6 2.7.5 5.4 1.1 8.2 1.3h1.4c.8 0 1.4.2 1.4 1v9.9c0 1.6-.8 1.5-1.5-.3-.2-.6-2-4.5-3.8-6.2-2.6-2.5-6.3-4.6-12.1-4.6-1.8 0-3.8.2-5.4.6-1.5.4-2.9 1-4.1 1.9-1.1.8-2 1.8-2.7 3.1-.6 1.2-.9 2.5-.9 4.1 0 2.4.9 4.3 2.7 5.8 1.8 1.5 4.2 2.7 7.1 3.5 1.2.4 11.3 3.2 12.5 3.5 4 1.2 7.1 2.9 9.3 5.2 2.3 2.3 3.4 5.1 3.4 8.5-.1 2.1-.7 4.2-1.9 6M49.8 21.1c-.8-2.9-2-5.5-3.7-7.8-1.6-2.4-3.6-4.3-6.1-5.7-2.4-1.5-5.3-2.2-8.6-2.2-3.4 0-6.3.7-8.7 2.2-2.4 1.4-4.4 3.3-6.1 5.6-1.6 2.3-2.7 5-3.5 7.9C12.4 24 12 27 12 30c0 5.7 1.4 12 4.9 16.9 1.7 2.2 3.7 4 6.1 5.3 2.5 1.3 5.3 2 8.6 2s6.1-.7 8.4-2.2c2.4-1.5 4.5-3.4 6.1-5.7 1.6-2.4 2.8-5 3.6-7.9.8-2.9 1.3-5.9 1.3-8.8 0-2.8-.4-5.6-1.2-8.5m9.2 19c-1.6 3.2-3.8 6-6.5 8.4-2.7 2.4-5.9 4.2-9.6 5.5-3.6 1.3-7.5 1.9-11.5 1.9s-7.8-.6-11.5-1.8c-3.6-1.3-6.8-3.1-9.5-5.3-2.7-2.3-4.9-5.1-6.4-8.2-1.5-3.2-2.3-6.7-2.3-10.6 0-4.1.8-7.7 2.5-10.9 1.6-3.3 3.8-6 6.6-8.2 2.8-2.3 6.1-4 9.8-5.2 3.8-1.2 7.7-1.8 11.8-1.8 4.5 0 8.5.7 12.1 2.1 3.6 1.4 6.7 3.3 9.2 5.8 5.1 4.9 7.7 11.4 7.7 18 0 3.6-.8 7.1-2.4 10.3m395.8 15.4c-8.3.1-12.4-4.8-14.5-6.6-4.7-4.3-11.3-10.4-12.8-11.8-1.4-1.3-4.2-4.3-6.2-5.5-.9-.4-1-1.3 0-1.4 2.3-.2 4.1-.6 5.8-1.1 2.8-.8 5.4-2.5 7.1-4.7.8-1 1.3-2.1 1.7-3.2.4-1.1.5-2.3.5-3.6 0-4.8-2.8-8.3-7.6-10.4-1.2-.5-2.6-.9-3.9-1.1-1.3-.2-2.8-.3-4.3-.3-1.1 0-2 0-2.7.1-1.5 0-1.8 2.3-1.8 5.3 0 1.1-.2 5.5-.2 5.5v22.6c0 2.2 0 4.1.1 5.7l.2 3.9c.2 4.1 2.2 5.2 6.6 5.4 1.1 0 .9 1.2 0 1.2h-21.5c-1 0-1.1-1 0-1.2 2.6-.4 4-1.1 4.8-3.7.2-.5.3-1.2.3-1.9.1-.7.2-1.5.2-2.2 0-.8.1-1.6.1-2.3v-2.7c.1-1.1.1-2.3.1-3.7.1-1.4.1-2.7.1-4.1V16c0-.8 0-1.7-.1-2.5 0-.9-.1-1.7-.2-2.4-.1-.8-.2-1.5-.4-2.1-.3-1.1-1-2.4-2-2.7-.8-.4-1.7-.6-2.6-.7-1-.2-1-1.2 0-1.2h7.2c2.3 0 4.5-.1 6.8-.1h5.5c3.5 0 6.7.1 9.4.3 2.8.2 5.3.8 7.6 1.9 2.4 1.1 4.3 2.6 5.7 4.5 1.5 1.9 2.2 4.3 2.2 7.1 0 1.8-.4 3.4-1.1 4.8-2.2 4.4-7.3 7-12.1 8.6l.7.7c2 2 2.6 2.5 5 4.7 0 0 8.7 8.1 10.5 9.7 4.9 4.3 8.2 6.8 15.3 7.6 1.1.1.9 1.2-.2 1.2l-9.3.1z" fill="#00273e"/><path d="M118.3 104.8h-6.6V85.2h5.3c5.3 0 6.4 3 6.4 4.9 0 1.8-1 3.5-3.3 4.2 2.9.4 4.8 2.3 4.8 5 0 3-2 5.5-6.6 5.5zM116.4 87h-1.7v6.6h2.2c2.3 0 3.5-1.3 3.5-3.3 0-2.1-.9-3.3-4-3.3zm.7 8.4h-2.4v7.5h2.7c2.9 0 4.4-1 4.4-3.9 0-2.3-1.9-3.6-4.7-3.6zm32.5 9.4l-5.4-8.7h-2v8.7h-3V85.2h5c4.6 0 6.7 2.1 6.7 5.3 0 3.1-1.9 4.6-3.8 5.2l5.8 9.1h-3.3zm-5.7-17.9h-1.7v7.4h1.8c3 0 4-1.6 4-3.8-.1-1.9-.9-3.6-4.1-3.6zm31.5-2.1c6.1 0 10.4 4.3 10.4 10.3s-4.5 10.2-10.4 10.2c-6 0-10.4-4.2-10.4-10.2 0-6 4.7-10.3 10.4-10.3zm0 18.6c4.3 0 7.2-3.6 7.2-8.4 0-4.9-2.9-8.4-7.2-8.4-3.9 0-7.2 2.9-7.2 8.5 0 4.8 2.9 8.3 7.2 8.3zm36.7 1.4l-7.9-9-.6.6v8.4h-3.1V85.2h3.1v8.7l8.5-8.7h2.7l-8.5 8.8 9.7 10.8h-3.9zm17.5 0V85.2h10.6V87h-7.5v6.5h7.2v1.8h-7.2v7.6h7.6v1.8h-10.7zm36 0l-5.4-8.7h-2v8.7h-3V85.2h5c4.6 0 6.7 2.1 6.7 5.3 0 3.1-1.9 4.6-3.8 5.2l5.8 9.1h-3.3zM260 86.9h-1.7v7.4h1.8c3 0 4-1.6 4-3.8-.1-1.9-1-3.6-4.1-3.6zm33.8 12.9h-8.5l-2.2 5h-2.2l9.2-20.4 9.2 20.4H296l-2.2-5zm-7.7-2h6.8l-3.4-7.7-3.4 7.7zm34.8 7.4c-6.2 0-10.4-4.3-10.4-10.2 0-5.8 4.4-10.3 10.4-10.3 3.6 0 5.6 1.5 7.1 2.9-.3.4-.6.8-1 1.1-1.5-1.3-3.2-2.2-5.9-2.2-4.2 0-7.5 3.1-7.5 8.5 0 4.9 3.1 8.3 7.4 8.3 4.8 0 7.1-3.4 7.3-7h-5v-1.8h7.6c-.3 6.5-3.8 10.7-10 10.7zm24.6-.4V85.2h10.6V87h-7.5v6.5h7.2v1.8h-7.2v7.6h7.6v1.8h-10.7z" fill="#9b9a9a"/></svg>