<svg xmlns="http://www.w3.org/2000/svg" xmlns:xlink="http://www.w3.org/1999/xlink" version="1.1" x="0px" y="0px" viewBox="0 0 43.7 48.5" enable-background="new 0 0 43.7 48.5" xml:space="preserve"><defs><rect y="0" width="43.7" height="48.5"/></defs><clipPath><use xlink:href="#SVGID_1_" overflow="visible"/></clipPath><path clip-path="url(#SVGID_2_)" d="M36.9 35.4c-1.6 0-3.2 0.6-4.4 1.7l-0.4 0.4 -18.9-11 0.1-0.5c0.1-0.5 0.2-1 0.2-1.6 0-0.6-0.1-1.1-0.2-1.6l-0.1-0.5 18.7-10.9 0.4 0.4c1.3 1.2 2.9 1.8 4.6 1.8 3.7 0 6.8-3 6.8-6.8S40.7 0 36.9 0c-3.7 0-6.8 3-6.8 6.8 0 0.6 0.1 1.1 0.2 1.6l0.1 0.5L11.8 19.8l-0.4-0.4c-1.3-1.2-2.9-1.8-4.6-1.8 -3.7 0-6.8 3-6.8 6.8s3 6.8 6.8 6.8c1.7 0 3.3-0.7 4.6-1.8l0.4-0.4 18.8 11 -0.1 0.5c-0.1 0.5-0.2 1-0.2 1.5 0 3.6 3 6.6 6.6 6.6 3.6 0 6.6-3 6.6-6.6C43.5 38.3 40.6 35.4 36.9 35.4"/></svg>