<?xml version="1.0" encoding="utf-8"?>
<!-- Generator: Adobe Illustrator 18.1.1, SVG Export Plug-In . SVG Version: 6.00 Build 0)  -->
<svg version="1.1" id="Layer_1" xmlns="http://www.w3.org/2000/svg" xmlns:xlink="http://www.w3.org/1999/xlink" x="0px" y="0px"
	 viewBox="0 0 43.7 48.5" style="enable-background:new 0 0 43.7 48.5;" xml:space="preserve">
<g>
	<path style="fill: #fff" d="M36.9,35.4c-1.6,0-3.2,0.6-4.4,1.7l-0.4,0.4l-18.9-11l0.1-0.5c0.1-0.5,0.2-1,0.2-1.6c0-0.6-0.1-1.1-0.2-1.6
		l-0.1-0.5l18.7-10.9l0.4,0.4c1.3,1.2,2.9,1.8,4.6,1.8c3.7,0,6.8-3,6.8-6.8S40.7,0,36.9,0c-3.7,0-6.8,3-6.8,6.8
		c0,0.6,0.1,1.1,0.2,1.6l0.1,0.5L11.8,19.8l-0.4-0.4c-1.3-1.2-2.9-1.8-4.6-1.8c-3.7,0-6.8,3-6.8,6.8s3,6.8,6.8,6.8
		c1.7,0,3.3-0.7,4.6-1.8l0.4-0.4l18.8,11l-0.1,0.5c-0.1,0.5-0.2,1-0.2,1.5c0,3.6,3,6.6,6.6,6.6c3.6,0,6.6-3,6.6-6.6
		C43.5,38.3,40.6,35.4,36.9,35.4"/>
</g>
</svg>